<svg xmlns="http://www.w3.org/2000/svg" width="390.339" height="415.313" viewBox="0 0 390.339 415.313">
  <g id="Group_350" data-name="Group 350" transform="translate(-53.332 -36.363)">
    <g id="Background_Complete" data-name="Background Complete">
      <g id="Group_179" data-name="Group 179">
        <path id="Path_135" data-name="Path 135" d="M53.332,223.834V271.47a15.605,15.605,0,0,0,15.6,15.606H239.745a15.606,15.606,0,0,0,15.606-15.606V231.22l21.265-22.342-207.63-.649A15.6,15.6,0,0,0,53.332,223.834Z" fill="#f5f5f5"/>
        <g id="Group_176" data-name="Group 176">
          <path id="Path_136" data-name="Path 136" d="M230.173,237.089l-155-.716.017-4.764,155,.716Z" fill="#e0e0e0"/>
        </g>
        <g id="Group_177" data-name="Group 177">
          <path id="Path_137" data-name="Path 137" d="M230.173,252.762l-155-.716.017-4.764,155,.716Z" fill="#e0e0e0"/>
        </g>
        <g id="Group_178" data-name="Group 178">
          <rect id="Rectangle_15" data-name="Rectangle 15" width="4.764" height="61.328" transform="translate(168.843 267.737) rotate(-89.718)" fill="#e0e0e0"/>
        </g>
      </g>
      <g id="Group_183" data-name="Group 183">
        <path id="Path_138" data-name="Path 138" d="M211.6,388.434V436.07a15.605,15.605,0,0,0,15.6,15.606H398.015a15.606,15.606,0,0,0,15.607-15.606V395.819l21.264-22.342-207.63-.649A15.605,15.605,0,0,0,211.6,388.434Z" fill="#f5f5f5"/>
        <g id="Group_180" data-name="Group 180">
          <path id="Path_139" data-name="Path 139" d="M389.185,400.451l-155-.716.016-4.764,155,.716Z" fill="#e0e0e0"/>
        </g>
        <g id="Group_181" data-name="Group 181">
          <path id="Path_140" data-name="Path 140" d="M389.185,416.124l-155-.716.016-4.764,155,.716Z" fill="#e0e0e0"/>
        </g>
        <g id="Group_182" data-name="Group 182">
          <rect id="Rectangle_16" data-name="Rectangle 16" width="4.764" height="61.328" transform="translate(327.855 431.099) rotate(-89.718)" fill="#e0e0e0"/>
        </g>
      </g>
      <path id="Path_141" data-name="Path 141" d="M144.63,44.39H245.374a9.029,9.029,0,0,1,9.03,9.029v49.276a9.029,9.029,0,0,1-9.03,9.029H159.886a9.029,9.029,0,0,1-9.03-9.029V50.615Z" fill="#f5f5f5"/>
      <g id="Group_187" data-name="Group 187">
        <path id="Path_142" data-name="Path 142" d="M203.033,92.294v31.594a10.35,10.35,0,0,1-10.35,10.351H79.395a10.351,10.351,0,0,1-10.351-10.351V97.193L54.94,82.374l137.71-.43A10.35,10.35,0,0,1,203.033,92.294Z" fill="#e0e0e0"/>
        <g id="Group_184" data-name="Group 184">
          <path id="Path_143" data-name="Path 143" d="M85.744,101.085l102.8-.475-.011-3.16-102.8.475Z" fill="#f5f5f5"/>
        </g>
        <g id="Group_185" data-name="Group 185">
          <path id="Path_144" data-name="Path 144" d="M85.744,111.48l102.8-.475-.011-3.16-102.8.475Z" fill="#f5f5f5"/>
        </g>
        <g id="Group_186" data-name="Group 186">
          <rect id="Rectangle_17" data-name="Rectangle 17" width="40.676" height="3.16" transform="translate(85.73 118.453) rotate(-0.282)" fill="#f5f5f5"/>
        </g>
      </g>
      <g id="Group_191" data-name="Group 191">
        <path id="Path_145" data-name="Path 145" d="M417.644,238.8V270.4a10.35,10.35,0,0,1-10.351,10.35H294.006a10.35,10.35,0,0,1-10.351-10.35V243.7l-14.1-14.818,137.71-.431A10.35,10.35,0,0,1,417.644,238.8Z" fill="#e0e0e0"/>
        <g id="Group_188" data-name="Group 188">
          <path id="Path_146" data-name="Path 146" d="M300.354,247.6l102.8-.475-.011-3.16-102.8.475Z" fill="#f5f5f5"/>
        </g>
        <g id="Group_189" data-name="Group 189">
          <path id="Path_147" data-name="Path 147" d="M300.354,257.991l102.8-.475-.011-3.16-102.8.475Z" fill="#f5f5f5"/>
        </g>
        <g id="Group_190" data-name="Group 190">
          <rect id="Rectangle_18" data-name="Rectangle 18" width="40.676" height="3.16" transform="translate(300.34 264.963) rotate(-0.282)" fill="#f5f5f5"/>
        </g>
      </g>
    </g>
    <g id="Plants">
      <g id="Group_209" data-name="Group 209">
        <g id="Group_193" data-name="Group 193">
          <g id="Group_192" data-name="Group 192">
            <path id="Path_148" data-name="Path 148" d="M320.6,395.651c-16.932-16.487-17.211-41.991-12.8-64.154.734-3.7.968-7.689,3.272-10.664s6.8-4.528,9.873-2.415c2.55,1.753,3.228,5.164,4.338,8.074a22.05,22.05,0,0,0,7.361,9.762c2.168,1.617,4.976,2.849,7.525,1.942,3.5-1.245,4.6-5.616,5.186-9.321l3.258-20.709c.583-3.7,1.19-7.483,2.916-10.806s4.8-6.17,8.483-6.579,7.7,2.332,7.853,6.075c.062,1.558-.5,3.073-.649,4.625s.288,3.369,1.677,4.036c1.406.676,3.058-.131,4.341-1.033,4.431-3.11,7.811-7.5,11.016-11.888s6.359-8.9,10.491-12.412,9.454-5.952,14.8-5.385,10.459,4.763,10.946,10.184c.489,5.437-3.421,10.231-7.424,13.911a83.685,83.685,0,0,1-19.88,13.576c-1.3.637-2.712,1.325-3.382,2.622-1.208,2.335.728,5.168,3.031,6.378,2.607,1.37,5.647,1.573,8.476,2.385s5.747,2.6,6.392,5.5c.9,4.03-2.916,7.476-6.453,9.563a71.7,71.7,0,0,1-22.918,8.659c-2.885.55-5.893.955-8.4,2.508s-4.377,4.662-3.477,7.485,4.166,4.217,7.1,4.155,5.743-1.192,8.627-1.772c5.4-1.087,11.908.339,14.446,5.266,1.668,3.24,1.2,7.293-.449,10.559a27.359,27.359,0,0,1-7.107,8.226c-9.715,8.227-21.408,14.216-33.874,16.375s-23.575,1.477-34.6-4.73" fill="#e8505b"/>
          </g>
        </g>
        <g id="Group_196" data-name="Group 196">
          <g id="Group_195" data-name="Group 195">
            <g id="Group_194" data-name="Group 194">
              <path id="Path_149" data-name="Path 149" d="M317.6,412.126a164.628,164.628,0,0,1,11.038-29.5,335.939,335.939,0,0,1,19.005-33.541l5.433-8.536c1.79-2.8,3.565-5.572,5.468-8.178a167.788,167.788,0,0,1,11.8-14.349c3.973-4.383,7.9-8.4,11.6-12.124s7.236-7.123,10.581-10.086a133.029,133.029,0,0,1,16.807-12.8c2.1-1.351,3.755-2.345,4.889-3l1.294-.742a2.921,2.921,0,0,1,.453-.231,2.644,2.644,0,0,1-.417.293l-1.259.8c-1.109.7-2.745,1.728-4.816,3.111a140.677,140.677,0,0,0-16.629,12.94c-3.315,2.978-6.812,6.393-10.5,10.126s-7.591,7.764-11.541,12.147a169.7,169.7,0,0,0-11.718,14.319c-1.889,2.6-3.645,5.347-5.438,8.152s-3.594,5.652-5.427,8.533A344.373,344.373,0,0,0,329.209,382.9a167.519,167.519,0,0,0-11.137,29.351" fill="#263238"/>
            </g>
          </g>
        </g>
        <g id="Group_199" data-name="Group 199">
          <g id="Group_198" data-name="Group 198">
            <g id="Group_197" data-name="Group 197">
              <path id="Path_150" data-name="Path 150" d="M358.744,332.372a7.589,7.589,0,0,1-.1-1.637c-.027-1.054-.015-2.58.026-4.466.08-3.77.369-8.972.708-14.706s.553-10.928.576-14.688c.016-1.88.014-3.4,0-4.454a7.564,7.564,0,0,1,.056-1.64,7.391,7.391,0,0,1,.212,1.626c.1,1.051.174,2.576.219,4.462.1,3.773-.034,8.989-.374,14.731-.35,5.658-.666,10.776-.908,14.687-.1,1.767-.18,3.257-.245,4.452A7.434,7.434,0,0,1,358.744,332.372Z" fill="#263238"/>
            </g>
          </g>
        </g>
        <g id="Group_202" data-name="Group 202">
          <g id="Group_201" data-name="Group 201">
            <g id="Group_200" data-name="Group 200">
              <path id="Path_151" data-name="Path 151" d="M407.771,331.271a10.565,10.565,0,0,1-1.935-.084c-1.238-.091-3.029-.233-5.248-.337-4.434-.243-10.57-.364-17.347-.2s-12.906.593-17.328,1.024c-2.215.2-4,.41-5.238.548a10.3,10.3,0,0,1-1.931.151,10.361,10.361,0,0,1,1.9-.42c1.227-.22,3.01-.505,5.224-.77,4.422-.558,10.566-1.056,17.365-1.232a169.928,169.928,0,0,1,17.394.408c2.221.168,4.011.384,5.245.56A10.177,10.177,0,0,1,407.771,331.271Z" fill="#263238"/>
            </g>
          </g>
        </g>
        <g id="Group_205" data-name="Group 205">
          <g id="Group_204" data-name="Group 204">
            <g id="Group_203" data-name="Group 203">
              <path id="Path_152" data-name="Path 152" d="M329.367,381.842a2.508,2.508,0,0,1-.231-.633c-.144-.5-.319-1.114-.532-1.854-.454-1.612-1.051-3.963-1.75-6.876-1.4-5.825-3.088-13.933-4.826-22.9s-3.346-17.088-4.625-22.934l-1.536-6.92c-.163-.754-.3-1.376-.407-1.886a2.475,2.475,0,0,1-.1-.67,2.552,2.552,0,0,1,.231.635l.532,1.852c.454,1.613,1.051,3.963,1.751,6.876,1.4,5.825,3.087,13.933,4.826,22.908s3.346,17.085,4.625,22.932c.631,2.843,1.149,5.182,1.535,6.92.163.754.3,1.376.407,1.886A2.426,2.426,0,0,1,329.367,381.842Z" fill="#263238"/>
            </g>
          </g>
        </g>
        <g id="Group_208" data-name="Group 208">
          <g id="Group_207" data-name="Group 207">
            <g id="Group_206" data-name="Group 206">
              <path id="Path_153" data-name="Path 153" d="M395.918,371.818a2.589,2.589,0,0,1-.67.156l-1.937.315c-1.785.272-4.2.64-7.128,1.085-6.019.918-14.318,2.282-23.486,3.8s-17.49,2.808-23.53,3.6c-3.019.4-5.466.7-7.16.865l-1.953.186a2.539,2.539,0,0,1-.687.016,2.61,2.61,0,0,1,.67-.157c.52-.083,1.16-.187,1.937-.313l7.127-1.086c6.019-.917,14.319-2.281,23.489-3.8s17.487-2.807,23.526-3.6c3.02-.4,5.466-.695,7.162-.866l1.953-.185A2.522,2.522,0,0,1,395.918,371.818Z" fill="#263238"/>
            </g>
          </g>
        </g>
      </g>
      <g id="Group_213" data-name="Group 213">
        <path id="Path_154" data-name="Path 154" d="M152.377,170.79a11.13,11.13,0,0,1-3.827-10.5,14.782,14.782,0,0,1,6.363-9.485c1.492-1.022,3.34-1.833,5.076-1.323a4.761,4.761,0,0,1,3.08,3.713,9.658,9.658,0,0,1-.58,4.979c-1.9,5.481-4.738,10.436-10.112,12.616" fill="#455a64"/>
        <path id="Path_155" data-name="Path 155" d="M147.306,180.151a26.039,26.039,0,0,0-23.014-6.024c-2.045.474-4.348,1.555-4.685,3.628s1.517,3.837,3.337,4.892a22.244,22.244,0,0,0,24.6-1.98" fill="#455a64"/>
        <path id="Path_156" data-name="Path 156" d="M117.95,136.813a13.048,13.048,0,0,1,10.068,1.733,23.033,23.033,0,0,1,7.2,7.522c3.624,5.725,4.9,13.419,5.061,20.192-7.518-.3-13.943-6.213-17.014-9.416-4.853-5.062-10.552-17.157-5.315-20.031" fill="#455a64"/>
        <g id="Group_210" data-name="Group 210">
          <path id="Path_157" data-name="Path 157" d="M158.678,190.379a26.863,26.863,0,0,1-1.876-2.834,47.735,47.735,0,0,1-4.235-12.072,23.947,23.947,0,0,1,.939-12.734,15.7,15.7,0,0,1,1.818-3.451,4.4,4.4,0,0,1,.929-1.085,33.31,33.31,0,0,0-2.242,4.719,25.119,25.119,0,0,0-.7,12.416,55.354,55.354,0,0,0,3.975,11.982" fill="#263238"/>
        </g>
        <g id="Group_211" data-name="Group 211">
          <path id="Path_158" data-name="Path 158" d="M158.748,190.47l-3.915-5.049c-3.295-4.271-7.861-10.16-12.99-16.6s-9.849-12.2-13.277-16.364l-4.048-4.944a13.8,13.8,0,0,1-1.415-1.873,13.986,13.986,0,0,1,1.639,1.681c1.02,1.114,2.467,2.75,4.234,4.79,3.536,4.079,8.327,9.8,13.461,16.237s9.638,12.392,12.825,16.749c1.594,2.178,2.866,3.954,3.724,5.2" fill="#263238"/>
        </g>
        <g id="Group_212" data-name="Group 212">
          <path id="Path_159" data-name="Path 159" d="M128.987,178.575a4.714,4.714,0,0,1,1.3-.4,10.861,10.861,0,0,1,1.571-.3,18.329,18.329,0,0,1,2.11-.227,27.4,27.4,0,0,1,5.523.21,29.284,29.284,0,0,1,12.544,4.879,27.391,27.391,0,0,1,4.214,3.578,18.464,18.464,0,0,1,1.4,1.593,10.911,10.911,0,0,1,.955,1.282c.488.731.419,1.073.376,1.1a44.175,44.175,0,0,0-3.112-3.6,30.619,30.619,0,0,0-4.226-3.378,30.925,30.925,0,0,0-12.256-4.767,30.559,30.559,0,0,0-5.4-.365C130.9,178.264,129.017,178.721,128.987,178.575Z" fill="#263238"/>
        </g>
      </g>
    </g>
    <g id="Device">
      <g id="Group_222" data-name="Group 222">
        <g id="Group_221" data-name="Group 221">
          <g id="Group_217" data-name="Group 217">
            <g id="Group_216" data-name="Group 216">
              <g id="Group_214" data-name="Group 214">
                <path id="Path_160" data-name="Path 160" d="M296.744,433.735l-115.5-.534A25.159,25.159,0,0,1,156.2,407.935l1.224-289.562A25.16,25.16,0,0,1,182.7,93.32l115.5.533a25.161,25.161,0,0,1,25.043,25.266L322.02,408.682A25.16,25.16,0,0,1,296.744,433.735Z" fill="#263238"/>
              </g>
              <g id="Group_215" data-name="Group 215">
                <path id="Path_161" data-name="Path 161" d="M298.036,103.847l-22.394-.1a5.564,5.564,0,0,0-5.461,5.66l-.018,4.062a5.561,5.561,0,0,1-5.461,5.659l-43.65-.2a5.569,5.569,0,0,1-5.414-5.71l.018-4.062a5.569,5.569,0,0,0-5.415-5.71l-7.875-.036-19.6-.091a17.622,17.622,0,0,0-17.7,17.546L163.87,403.494a17.62,17.62,0,0,0,17.539,17.7l115.27.532a17.621,17.621,0,0,0,17.7-17.546l1.2-282.635A17.621,17.621,0,0,0,298.036,103.847Z" fill="#fafafa"/>
              </g>
            </g>
          </g>
          <g id="Group_218" data-name="Group 218">
            <path id="Path_162" data-name="Path 162" d="M232.8,394.663a2.406,2.406,0,1,1-2.37-2.055A2.23,2.23,0,0,1,232.8,394.663Z" fill="#455a64"/>
          </g>
          <g id="Group_219" data-name="Group 219">
            <path id="Path_163" data-name="Path 163" d="M240.169,394.7a2.405,2.405,0,1,1-2.369-2.055A2.229,2.229,0,0,1,240.169,394.7Z" fill="#455a64"/>
          </g>
          <g id="Group_220" data-name="Group 220">
            <path id="Path_164" data-name="Path 164" d="M247.539,394.73a2.406,2.406,0,1,1-2.37-2.054A2.229,2.229,0,0,1,247.539,394.73Z" fill="#455a64"/>
          </g>
        </g>
      </g>
      <path id="Path_165" data-name="Path 165" d="M199.517,240.1c1.878.268,115.185,22.491,115.185,22.491V240.1Z" fill="#ebebeb"/>
      <path id="Path_166" data-name="Path 166" d="M163.869,382.895s123.257-17.438,122.183-16.9-122.183,0-122.183,0Z" fill="#ebebeb"/>
      <g id="Group_223" data-name="Group 223">
        <path id="Path_167" data-name="Path 167" d="M307.009,52.9c.143,0,.26,6.232.26,13.917s-.117,13.918-.26,13.918-.261-6.23-.261-13.918S306.865,52.9,307.009,52.9Z" fill="#263238"/>
      </g>
      <g id="Group_224" data-name="Group 224">
        <path id="Path_168" data-name="Path 168" d="M356.33,84.935c.058.132-5.6,2.755-12.627,5.858s-12.78,5.513-12.838,5.381,5.594-2.754,12.628-5.858S356.272,84.8,356.33,84.935Z" fill="#263238"/>
      </g>
      <g id="Group_225" data-name="Group 225">
        <path id="Path_169" data-name="Path 169" d="M355.084,36.363a2.667,2.667,0,0,1-.268.533l-.855,1.474c-.747,1.279-1.865,3.106-3.262,5.354-2.8,4.492-6.83,10.6-11.394,17.257s-8.639,12.726-11.516,17.165c-1.408,2.177-2.56,3.96-3.4,5.261-.382.579-.693,1.05-.938,1.423a2.54,2.54,0,0,1-.357.477,2.532,2.532,0,0,1,.267-.532l.855-1.475c.747-1.278,1.865-3.105,3.262-5.353,2.8-4.492,6.831-10.6,11.4-17.26s8.637-12.723,11.515-17.161l3.4-5.262c.381-.58.692-1.051.937-1.423A2.546,2.546,0,0,1,355.084,36.363Z" fill="#263238"/>
      </g>
    </g>
    <g id="Speech_Bubbles" data-name="Speech Bubbles">
      <g id="Group_231" data-name="Group 231">
        <g id="Group_399" data-name="Group 399">
          <path id="Path_170" data-name="Path 170" d="M424.226,154.092H198.782a8.817,8.817,0,0,0-8.817,8.817v69.93a8.818,8.818,0,0,0,8.817,8.817h16.795c1.353,7.3,2.936,16.517,2.936,16.517l15.2-16.517H424.226a8.817,8.817,0,0,0,8.816-8.817v-69.93A8.816,8.816,0,0,0,424.226,154.092Z" fill="#185598"/>
          <g id="Group_230" data-name="Group 230">
            <g id="Group_226" data-name="Group 226">
              <path id="Path_171" data-name="Path 171" d="M331.212,192.025c0,.144-26.832.26-59.924.26s-59.93-.116-59.93-.26,26.827-.26,59.93-.26S331.212,191.881,331.212,192.025Z" fill="#f5f5f5"/>
            </g>
            <g id="Group_227" data-name="Group 227">
              <path id="Path_172" data-name="Path 172" d="M331.212,181.276c0,.143-26.832.26-59.924.26s-59.93-.117-59.93-.26,26.827-.261,59.93-.261S331.212,181.132,331.212,181.276Z" fill="#f5f5f5"/>
            </g>
            <g id="Group_228" data-name="Group 228">
              <path id="Path_173" data-name="Path 173" d="M331.212,202.656c0,.144-26.832.261-59.924.261s-59.93-.117-59.93-.261,26.827-.26,59.93-.26S331.212,202.512,331.212,202.656Z" fill="#f5f5f5"/>
            </g>
            <g id="Group_229" data-name="Group 229">
              <path id="Path_174" data-name="Path 174" d="M289.864,213.668c0,.144-17.575.261-39.251.261s-39.255-.117-39.255-.261,17.572-.26,39.255-.26S289.864,213.525,289.864,213.668Z" fill="#f5f5f5"/>
            </g>
          </g>
        </g>
      </g>
      <g id="Group_237" data-name="Group 237">
        <path id="Path_175" data-name="Path 175" d="M322.365,279.816H95.07a6.168,6.168,0,0,0-6.168,6.168V359.97a6.169,6.169,0,0,0,6.168,6.169H260.149l15.027,16.327s1.577-9.177,2.9-16.327h44.285a6.169,6.169,0,0,0,6.168-6.169V285.984A6.168,6.168,0,0,0,322.365,279.816Z" fill="#455a64"/>
        <g id="Group_236" data-name="Group 236">
          <g id="Group_232" data-name="Group 232">
            <path id="Path_176" data-name="Path 176" d="M313.449,317.968c0,.144-26.833.26-59.924.26s-59.93-.116-59.93-.26,26.826-.26,59.93-.26S313.449,317.824,313.449,317.968Z" fill="#f5f5f5"/>
          </g>
          <g id="Group_233" data-name="Group 233">
            <path id="Path_177" data-name="Path 177" d="M313.449,307.219c0,.143-26.833.26-59.924.26s-59.93-.117-59.93-.26,26.826-.261,59.93-.261S313.449,307.075,313.449,307.219Z" fill="#f5f5f5"/>
          </g>
          <g id="Group_234" data-name="Group 234">
            <path id="Path_178" data-name="Path 178" d="M313.449,328.6c0,.144-26.833.26-59.924.26s-59.93-.116-59.93-.26,26.826-.26,59.93-.26S313.449,328.455,313.449,328.6Z" fill="#f5f5f5"/>
          </g>
          <g id="Group_235" data-name="Group 235">
            <path id="Path_179" data-name="Path 179" d="M272.1,339.611c0,.144-17.576.261-39.251.261s-39.255-.117-39.255-.261,17.572-.26,39.255-.26S272.1,339.468,272.1,339.611Z" fill="#f5f5f5"/>
          </g>
        </g>
      </g>
    </g>
    <g id="Character_2" data-name="Character 2">
      <g id="Group_293" data-name="Group 293">
        <g id="Group_281" data-name="Group 281">
          <path id="Path_180" data-name="Path 180" d="M367.553,124.431c.134-1.838-1.505-4.373-3.024-5.83a5.981,5.981,0,0,1-1.669-6.37c.612-2.271,2.052-2.1,2.621-3.436a10.1,10.1,0,0,0,.331-3.186,6.639,6.639,0,0,1,7.916-5.64A9.2,9.2,0,0,1,390.69,98.2a7.074,7.074,0,0,1,10.315,5.741,5.149,5.149,0,0,1,6.7,1.011,6.345,6.345,0,0,1,.482,6.992,8.32,8.32,0,0,1-6.01,3.958,12.214,12.214,0,0,1-7.216-1.311,23.36,23.36,0,0,1-5.919-4.472" fill="#263238"/>
          <ellipse id="Ellipse_3" data-name="Ellipse 3" cx="43.29" cy="42.275" rx="43.29" ry="42.275" transform="translate(340.613 154.793)" fill="#e0e0e0"/>
          <g id="Group_276" data-name="Group 276">
            <g id="Group_270" data-name="Group 270">
              <path id="Path_181" data-name="Path 181" d="M427.37,197.1l-4.792-12.287L405.4,195.607l15.3,23.6S426.932,211.118,427.37,197.1Z" fill="#eb996e"/>
              <g id="Group_261" data-name="Group 261">
                <g id="Group_260" data-name="Group 260">
                  <g id="Group_259" data-name="Group 259">
                    <g id="Group_256" data-name="Group 256">
                      <g id="Group_251" data-name="Group 251">
                        <g id="Group_250" data-name="Group 250">
                          <g id="Group_238" data-name="Group 238">
                            <path id="Path_182" data-name="Path 182" d="M379.961,170.5h0a11.519,11.519,0,0,0,11.568-10.893c.254-5.088.466-9.988.466-9.988s9.447-.684,10.319-9.919.991-30.593.991-30.593h0a32.774,32.774,0,0,0-32.907,1.429l-.9.577-1.091,47.793A11.52,11.52,0,0,0,379.961,170.5Z" fill="#ffbe9d"/>
                          </g>
                          <g id="Group_242" data-name="Group 242">
                            <g id="Group_239" data-name="Group 239">
                              <path id="Path_183" data-name="Path 183" d="M385.382,123.315a1.346,1.346,0,0,1,.862,1.7,1.361,1.361,0,0,1-1.717.854,1.345,1.345,0,0,1-.863-1.7A1.362,1.362,0,0,1,385.382,123.315Z" fill="#263238"/>
                            </g>
                            <g id="Group_241" data-name="Group 241">
                              <g id="Group_240" data-name="Group 240">
                                <path id="Path_184" data-name="Path 184" d="M387.97,123.795c-.156.152-1.031-.6-2.317-.684-1.285-.1-2.26.52-2.392.348-.065-.077.1-.357.524-.64a3.2,3.2,0,0,1,3.759.268C387.925,123.428,388.046,123.729,387.97,123.795Z" fill="#263238"/>
                              </g>
                            </g>
                          </g>
                          <g id="Group_246" data-name="Group 246">
                            <g id="Group_243" data-name="Group 243">
                              <path id="Path_185" data-name="Path 185" d="M399.481,123.315a1.346,1.346,0,0,1,.862,1.7,1.362,1.362,0,0,1-1.718.854,1.346,1.346,0,0,1-.862-1.7A1.362,1.362,0,0,1,399.481,123.315Z" fill="#263238"/>
                            </g>
                            <g id="Group_245" data-name="Group 245">
                              <g id="Group_244" data-name="Group 244">
                                <path id="Path_186" data-name="Path 186" d="M402.242,123.824c-.156.152-1.031-.6-2.317-.685-1.286-.1-2.26.521-2.392.349-.066-.077.1-.358.523-.641a3.2,3.2,0,0,1,3.759.269C402.2,123.456,402.317,123.757,402.242,123.824Z" fill="#263238"/>
                              </g>
                            </g>
                          </g>
                          <g id="Group_248" data-name="Group 248">
                            <g id="Group_247" data-name="Group 247">
                              <path id="Path_187" data-name="Path 187" d="M392.539,133.81a6.272,6.272,0,0,1,2.113-.269c.339-.009.609-.063.648-.24a1.8,1.8,0,0,0-.163-.973c-.262-.869-.527-1.748-.8-2.669-1.1-3.8-1.837-6.923-1.643-6.979s1.246,2.979,2.348,6.778c.258.927.505,1.811.748,2.685a2.116,2.116,0,0,1,.071,1.4.88.88,0,0,1-.623.485,2.156,2.156,0,0,1-.579.028A6.3,6.3,0,0,1,392.539,133.81Z" fill="#263238"/>
                            </g>
                          </g>
                          <g id="Group_249" data-name="Group 249">
                            <path id="Path_188" data-name="Path 188" d="M392.021,149.489a21.9,21.9,0,0,1-11.88-4.406s2.33,6.885,11.706,6.8Z" fill="#eb996e"/>
                          </g>
                        </g>
                      </g>
                      <g id="Group_255" data-name="Group 255">
                        <g id="Group_252" data-name="Group 252">
                          <path id="Path_189" data-name="Path 189" d="M369.273,124.68a1.4,1.4,0,0,0-1.32-1.427c-1.742-.082-4.605.548-4.966,5.309-.515,6.8,6.126,5.231,6.153,5.037C369.161,133.447,369.24,127.326,369.273,124.68Z" fill="#ffbe9d"/>
                        </g>
                        <g id="Group_254" data-name="Group 254">
                          <g id="Group_253" data-name="Group 253">
                            <path id="Path_190" data-name="Path 190" d="M367.678,130.894c-.028-.024-.126.074-.335.15a1.209,1.209,0,0,1-.895-.048,2.929,2.929,0,0,1-1.169-2.733,3.892,3.892,0,0,1,.463-1.671,1.38,1.38,0,0,1,.968-.842.613.613,0,0,1,.681.377c.077.2.024.33.059.344.018.019.156-.1.122-.388a.753.753,0,0,0-.238-.446.91.91,0,0,0-.648-.223,1.681,1.681,0,0,0-1.328.962,4,4,0,0,0-.558,1.864,3.077,3.077,0,0,0,1.521,3.067,1.294,1.294,0,0,0,1.107-.1C367.653,131.057,367.7,130.908,367.678,130.894Z" fill="#eb996e"/>
                          </g>
                        </g>
                      </g>
                    </g>
                    <g id="Group_257" data-name="Group 257">
                      <path id="Path_191" data-name="Path 191" d="M381.883,120.173c.339.436,1.522.232,3.058.167,1.533-.123,2.733-.065,3.012-.539.318-.494-1.166-1.627-3.143-1.465C382.828,118.417,381.5,119.722,381.883,120.173Z" fill="#263238"/>
                    </g>
                    <g id="Group_258" data-name="Group 258">
                      <path id="Path_192" data-name="Path 192" d="M396.858,119.721c.185.594,1.312.772,2.562.764,1.25-.025,2.372-.233,2.543-.831.175-.582-.959-1.417-2.57-1.394S396.668,119.144,396.858,119.721Z" fill="#263238"/>
                    </g>
                  </g>
                  <path id="Path_193" data-name="Path 193" d="M404.617,112.033s-5.6,2.713-12.9-.927c-4.785-2.389-10.364-3.556-11.594-2.594s-1.489,5.894-6.23,7.333c0,0,.325,9.409-3.426,9.074s-1.407-14.908-1.407-14.908l9.177-4.482,10.015-1.892,9.436,1.33,7.3,2Z" fill="#263238"/>
                </g>
              </g>
              <g id="Group_269" data-name="Group 269">
                <g id="Group_265" data-name="Group 265">
                  <path id="Path_194" data-name="Path 194" d="M341.812,166.477c9.806-10.085,27.068-8.984,27.068-8.984l14.307,10.242,8.113-9.446a52.61,52.61,0,0,1,16.517,5.111l.55.17-.007.114c6.276,3.408,15.163,11.582,23.629,19.515l-10.131,9.4-11.213,9.954a.3.3,0,0,1,.019.2c-.117.6,1.559,14.295,3.275,24.7a42.222,42.222,0,0,1-37.681,11.384c-4.587-.8-6.807-1.921-11.055-3.036a15.382,15.382,0,0,1-11.391-13.555h0c-.764-8.722-1.346-19.52-1.346-19.52" fill="#455a64"/>
                  <g id="Group_262" data-name="Group 262">
                    <path id="Path_195" data-name="Path 195" d="M400.272,160.048a10.918,10.918,0,0,1,.616,1.61c.367,1.046.866,2.57,1.456,4.462,1.181,3.783,2.685,9.052,4.107,14.931s2.485,11.258,3.161,15.163c.338,1.953.59,3.537.741,4.635a11.034,11.034,0,0,1,.186,1.713,10.706,10.706,0,0,1-.386-1.679c-.23-1.172-.535-2.724-.9-4.6-.768-3.884-1.889-9.236-3.3-15.108s-2.865-11.143-3.954-14.949l-1.3-4.506A10.9,10.9,0,0,1,400.272,160.048Z" fill="#263238"/>
                  </g>
                  <g id="Group_263" data-name="Group 263">
                    <path id="Path_196" data-name="Path 196" d="M409.484,196.1c-.09-.112,4.187-3.748,9.554-8.12s9.792-7.828,9.883-7.716-4.186,3.746-9.554,8.12S409.575,196.212,409.484,196.1Z" fill="#263238"/>
                  </g>
                  <path id="Path_197" data-name="Path 197" d="M354.757,180.32,345.979,209.2l3.266,1.7,3.221-8.166S355.775,185.572,354.757,180.32Z" opacity="0.2"/>
                  <g id="Group_264" data-name="Group 264" opacity="0.2">
                    <path id="Path_198" data-name="Path 198" d="M399.321,160.066c4.731,2.494-7.127,8.5-12.483,8.335l3.889-10.262S397.733,159.229,399.321,160.066Z"/>
                  </g>
                </g>
                <path id="Path_199" data-name="Path 199" d="M367.468,158.139v-7.646s14.935,3.843,15.477,12.779c0,0,1.9-9.877,9.594-10.351l1.086,13.894-8.953,7.79H375.6l-7.189-6.2-.939-9.648" fill="#455a64"/>
                <g id="Group_266" data-name="Group 266">
                  <path id="Path_200" data-name="Path 200" d="M386.306,206.132a9.83,9.83,0,0,1-.026-1.644c.022-1.057.041-2.586.046-4.474.013-3.775-.1-8.993-.579-14.732s-1.224-10.907-1.86-14.629c-.319-1.792-.583-3.276-.784-4.4a9.929,9.929,0,0,1-.246-1.626,9.958,9.958,0,0,1,.444,1.584c.257,1.026.584,2.523.948,4.38a137.187,137.187,0,0,1,2.445,29.433c-.052,1.892-.128,3.421-.212,4.477A10.144,10.144,0,0,1,386.306,206.132Z" fill="#263238"/>
                </g>
                <g id="Group_267" data-name="Group 267">
                  <path id="Path_201" data-name="Path 201" d="M382.258,160.7a1.806,1.806,0,0,0-.886.082c-.571.184-1.081.9-1.5,1.909a43.252,43.252,0,0,0-2.84,8.262l-.079.341-.3-.181c-.892-.539-1.808-1.123-2.729-1.747a54.684,54.684,0,0,1-4.842-3.679,6.117,6.117,0,0,1-1.649-2.159,6.807,6.807,0,0,1-.5-2.306,13.363,13.363,0,0,1,.332-3.344,4.948,4.948,0,0,1,.327-1.183,6.364,6.364,0,0,1-.128,1.217,15.8,15.8,0,0,0-.164,3.286,6.616,6.616,0,0,0,.531,2.154,5.744,5.744,0,0,0,1.571,1.974c1.412,1.18,3.052,2.408,4.818,3.609.913.619,1.819,1.2,2.7,1.742l-.38.159a37.786,37.786,0,0,1,3.039-8.289,6.273,6.273,0,0,1,.786-1.287,2,2,0,0,1,.953-.646C381.948,160.437,382.282,160.692,382.258,160.7Z" fill="#263238"/>
                </g>
                <g id="Group_268" data-name="Group 268">
                  <path id="Path_202" data-name="Path 202" d="M392.539,152.921a5.481,5.481,0,0,1,.14,1.194l.239,3.254c.112,1.371.278,3,.558,4.794a8.019,8.019,0,0,1,.18,2.935,5.045,5.045,0,0,1-1.965,2.509,22.109,22.109,0,0,0-3.286,2.5l-.4.446-.039-.6a17.887,17.887,0,0,0-2.206-7.447c-.949-1.7-1.732-2.579-1.67-2.629a2.829,2.829,0,0,1,.589.59,14.7,14.7,0,0,1,1.354,1.88,17.06,17.06,0,0,1,2.432,7.572l-.437-.149a20.983,20.983,0,0,1,3.347-2.579,4.627,4.627,0,0,0,1.784-2.221,7.9,7.9,0,0,0-.159-2.738c-.257-1.813-.386-3.459-.452-4.84s-.077-2.5-.074-3.271A5.217,5.217,0,0,1,392.539,152.921Z" fill="#263238"/>
                </g>
              </g>
            </g>
            <g id="Group_275" data-name="Group 275">
              <g id="Group_272" data-name="Group 272">
                <path id="Path_203" data-name="Path 203" d="M440.607,154.84c-.607.715-22.593,30.113-22.593,30.113l3.1,1.754,22.562-29.025Z" fill="#263238"/>
                <path id="Path_204" data-name="Path 204" d="M352.284,178.083s23.129,33.294,24.523,33.948c2.745,1.289,34.388-26.056,37.4-28.672.416-.555,1.274-1.728,2.96-4.06,0,0,2.5-11.424,5.16-10.546s-1.459,5.8.276,10.145,9.681-6.012,10-6.941l2.049-2.678s2.149,6.093,2,8.637c-.467,8.15-8.178,17.843-8.178,17.843s-34.63,42.9-58.35,44.229c-6.832.383-18.973-19-27.09-33.539a19.891,19.891,0,0,1,5.668-25.76Z" fill="#ffbe9d"/>
                <g id="Group_271" data-name="Group 271">
                  <path id="Path_205" data-name="Path 205" d="M432.767,179.365c-.077-.048.664-1.357,1.482-3.016s1.415-3.041,1.5-3.009a18.794,18.794,0,0,1-2.981,6.025Z" fill="#eb996e"/>
                </g>
              </g>
              <g id="Group_274" data-name="Group 274">
                <path id="Path_206" data-name="Path 206" d="M348.368,161.835s-24.825,8.826-6.368,50.574l28.659-17.3-4.077-9.762Z" fill="#455a64"/>
                <g id="Group_273" data-name="Group 273">
                  <path id="Path_207" data-name="Path 207" d="M346.466,162.557a8.619,8.619,0,0,1,2.989.251,12.165,12.165,0,0,1,3.256,1.374,17.6,17.6,0,0,1,3.617,2.968,43.357,43.357,0,0,1,6.743,10.075c2.1,4.059,4.06,8.682,6.07,13.54l1.757,4.247.089.216-.2.111c-8.292,4.52-15.512,8.753-20.615,11.921-2.554,1.58-4.587,2.88-5.983,3.783l-1.608,1.032a3.472,3.472,0,0,1-.577.334,3.408,3.408,0,0,1,.522-.414c.353-.256.872-.637,1.558-1.109,1.364-.952,3.371-2.3,5.9-3.92,5.061-3.25,12.26-7.542,20.552-12.081l-.114.326c-.564-1.358-1.158-2.792-1.761-4.247-2.009-4.856-3.951-9.472-6.016-13.52A44.131,44.131,0,0,0,356.06,167.4a17.722,17.722,0,0,0-3.5-2.973A12.4,12.4,0,0,0,349.4,163,17.914,17.914,0,0,0,346.466,162.557Z" fill="#263238"/>
                </g>
              </g>
            </g>
          </g>
          <g id="Group_277" data-name="Group 277">
            <path id="Path_208" data-name="Path 208" d="M399.871,100.661a1.489,1.489,0,0,1,.123.436,5.664,5.664,0,0,1,.072,1.3,6.628,6.628,0,0,1-8.575,6.017,5.9,5.9,0,0,1-3.421-2.48,3.491,3.491,0,0,1-.512-2.258,2.922,2.922,0,0,1,1.227-2.064,2.537,2.537,0,0,1,2.4-.154,3.051,3.051,0,0,1,1.641,1.649,4.378,4.378,0,0,1-.656,4.157,5.215,5.215,0,0,1-6.558,1.425,11.2,11.2,0,0,0-2.47-.948,3.1,3.1,0,0,0-1.911.2,10.354,10.354,0,0,0-1.422.937c-.013-.012.087-.129.292-.344a2.479,2.479,0,0,1,.408-.367,3.065,3.065,0,0,1,.636-.409,3.254,3.254,0,0,1,2.046-.305,10.969,10.969,0,0,1,2.568.9,7.268,7.268,0,0,0,1.443.477,4.563,4.563,0,0,0,1.611-.029,4.725,4.725,0,0,0,2.97-1.819,3.91,3.91,0,0,0,.572-3.676,2.357,2.357,0,0,0-3.285-1.256,2.413,2.413,0,0,0-1,1.7,2.989,2.989,0,0,0,.437,1.927,5.448,5.448,0,0,0,3.118,2.281,6.4,6.4,0,0,0,6.285-1.486,6.8,6.8,0,0,0,1.953-4.086A13.68,13.68,0,0,0,399.871,100.661Z" fill="#455a64"/>
          </g>
          <g id="Group_278" data-name="Group 278">
            <path id="Path_209" data-name="Path 209" d="M394.464,138.371c.011.063-.307.195-.857.218a4.45,4.45,0,0,1-3.694-1.861c-.308-.456-.391-.79-.334-.818a6.852,6.852,0,0,0,4.885,2.461Z" fill="#263238"/>
          </g>
          <g id="Group_279" data-name="Group 279">
            <path id="Path_210" data-name="Path 210" d="M368.24,133.95c.046-.043.327.44-.036,1.128a1.668,1.668,0,0,1-1.019.809,1.732,1.732,0,0,1-1.553-.407,1.862,1.862,0,0,1-.657-1.452,2,2,0,0,1,.456-1.2c.48-.565.968-.617.976-.56.038.075-.353.252-.677.775a1.554,1.554,0,0,0,.244,2.041,1.317,1.317,0,0,0,1.1.333,1.4,1.4,0,0,0,.818-.538C368.256,134.4,368.158,133.961,368.24,133.95Z" fill="#263238"/>
          </g>
          <g id="Group_280" data-name="Group 280">
            <path id="Path_211" data-name="Path 211" d="M401.517,104.03a3.294,3.294,0,0,1,.481,1.836,6.106,6.106,0,0,1-5.559,6.411,3.3,3.3,0,0,1-1.886-.216c.012-.089.727.043,1.837-.149a6.173,6.173,0,0,0,5.24-6.042C401.662,104.744,401.431,104.054,401.517,104.03Z" fill="#455a64"/>
          </g>
        </g>
        <g id="Group_282" data-name="Group 282">
          <path id="Path_212" data-name="Path 212" d="M367.7,187.7c.064.129-6.53,3.519-14.726,7.572s-14.895,7.234-14.959,7.105,6.529-3.518,14.728-7.572S367.636,187.57,367.7,187.7Z" fill="#e0e0e0"/>
        </g>
        <g id="Group_283" data-name="Group 283">
          <path id="Path_213" data-name="Path 213" d="M361.69,176.357c.068.127-5.8,3.41-13.109,7.331s-13.288,7-13.356,6.873,5.8-3.409,13.11-7.332S361.622,176.231,361.69,176.357Z" fill="#e0e0e0"/>
        </g>
        <g id="Group_284" data-name="Group 284">
          <path id="Path_214" data-name="Path 214" d="M355.885,167.186a23.84,23.84,0,0,1-2.937,1.737l-7.179,4L338.627,177a23.544,23.544,0,0,1-3.006,1.614,20.8,20.8,0,0,1,2.816-1.929c1.781-1.127,4.275-2.631,7.076-4.211s5.378-2.936,7.263-3.877A20.769,20.769,0,0,1,355.885,167.186Z" fill="#e0e0e0"/>
        </g>
        <g id="Group_285" data-name="Group 285">
          <path id="Path_215" data-name="Path 215" d="M377.845,165.017a4.69,4.69,0,0,1-1.931-.52,14.8,14.8,0,0,1-4.044-2.632,27.718,27.718,0,0,1-3.261-3.531,7.248,7.248,0,0,1-1.129-1.639,7.921,7.921,0,0,1,1.409,1.4,47.118,47.118,0,0,0,3.327,3.381,18.53,18.53,0,0,0,3.853,2.687C377.144,164.713,377.868,164.938,377.845,165.017Z" fill="#e0e0e0"/>
        </g>
        <g id="Group_286" data-name="Group 286">
          <path id="Path_216" data-name="Path 216" d="M392.433,159.6a6.961,6.961,0,0,1-5.385,4.533,34.889,34.889,0,0,0,2.972-1.934A35.46,35.46,0,0,0,392.433,159.6Z" fill="#e0e0e0"/>
        </g>
        <g id="Group_287" data-name="Group 287">
          <path id="Path_217" data-name="Path 217" d="M418.436,174.65a2.4,2.4,0,0,1-.558.1l-1.608.2c-1.4.155-3.426.35-5.934.545-5.016.4-11.956.791-19.626,1.071s-14.624.372-19.656.331c-2.515-.016-4.551-.066-5.957-.121l-1.618-.083a2.277,2.277,0,0,1-.563-.064,2.333,2.333,0,0,1,.565-.04l1.619-.015,5.953-.046c5.027-.053,11.97-.215,19.638-.483s14.6-.612,19.62-.918l5.941-.379,1.616-.1A2.317,2.317,0,0,1,418.436,174.65Z" fill="#e0e0e0"/>
        </g>
        <g id="Group_288" data-name="Group 288">
          <path id="Path_218" data-name="Path 218" d="M410.539,186.507a10.174,10.174,0,0,1-1.644.259c-1.061.133-2.6.3-4.506.47-3.809.351-9.082.713-14.914.951s-11.12.3-14.945.255c-1.912-.017-3.46-.059-4.529-.1a10.084,10.084,0,0,1-1.658-.125,10.079,10.079,0,0,1,1.661-.077l4.525-.061c3.821-.052,9.1-.174,14.925-.408s11.094-.541,14.907-.8l4.515-.305A10.38,10.38,0,0,1,410.539,186.507Z" fill="#e0e0e0"/>
        </g>
        <g id="Group_289" data-name="Group 289">
          <path id="Path_219" data-name="Path 219" d="M392.614,201.134a20.031,20.031,0,0,1-3.315.467c-2.055.212-4.9.44-8.049.6s-6.005.212-8.071.205a19.907,19.907,0,0,1-3.344-.136,22.8,22.8,0,0,1,3.337-.232l8.052-.357,8.046-.444A22.707,22.707,0,0,1,392.614,201.134Z" fill="#e0e0e0"/>
        </g>
        <g id="Group_290" data-name="Group 290">
          <path id="Path_220" data-name="Path 220" d="M369.7,166.427c0,.149-3.071.182-6.846.341s-6.836.37-6.852.222a51.1,51.1,0,0,1,13.7-.563Z" fill="#e0e0e0"/>
        </g>
        <g id="Group_291" data-name="Group 291">
          <path id="Path_221" data-name="Path 221" d="M411.885,165.887a76.09,76.09,0,0,1-8.886.227,76.373,76.373,0,0,1-8.885-.294,75.839,75.839,0,0,1,8.887-.227A75.847,75.847,0,0,1,411.885,165.887Z" fill="#e0e0e0"/>
        </g>
        <g id="Group_292" data-name="Group 292">
          <path id="Path_222" data-name="Path 222" d="M413.42,226.737a4.062,4.062,0,0,1-.911.523c-.6.311-1.487.719-2.6,1.185a56.857,56.857,0,0,1-18.318,4.222c-1.2.068-2.182.09-2.857.073a4.1,4.1,0,0,1-1.048-.071c0-.084,1.487-.141,3.877-.369a70.142,70.142,0,0,0,18.211-4.2C412.022,227.261,413.385,226.661,413.42,226.737Z" fill="#e0e0e0"/>
        </g>
      </g>
    </g>
    <g id="Character_1" data-name="Character 1">
      <g id="Group_349" data-name="Group 349">
        <ellipse id="Ellipse_4" data-name="Ellipse 4" cx="43.29" cy="41.296" rx="43.29" ry="41.296" transform="translate(100.004 280.254)" fill="#e0e0e0"/>
        <g id="Group_326" data-name="Group 326">
          <path id="Path_223" data-name="Path 223" d="M134.474,221.982c-6.868.357-9.564,7.517-10.385,9.115a13.849,13.849,0,0,0-1.1,5.239,11.394,11.394,0,0,1-1.317,5.172c-1.512,2.412-4.688,3.659-5.553,6.371-.979,3.067,1.533,6.348.863,9.5-.359,1.69-1.593,3.082-2.029,4.754a7,7,0,0,0,.927,5.192c2.255,3.874,6.931,5.82,11.411,5.979s8.863-1.18,13.146-2.506" fill="#263238"/>
          <path id="Path_224" data-name="Path 224" d="M164.694,230.88a4.278,4.278,0,0,0,1.017,4.425,27.568,27.568,0,0,0,3.717,3.029,6.07,6.07,0,0,1,2.538,3.924c.133,1.465-.6,2.918-.4,4.375.513,3.744,6.483,4.866,6.8,8.632.212,2.507-2.361,4.81-1.648,7.223a11.453,11.453,0,0,0,1.487,2.467c1.693,2.813.545,6.693-1.91,8.874s-5.867,2.951-9.148,3.1c-2.758.124-5.893-.327-7.517-2.56-1.487-2.043-1.182-4.83-.885-7.339,1.387-11.719,1.151-23.561.914-35.359" fill="#263238"/>
          <g id="Group_317" data-name="Group 317">
            <g id="Group_316" data-name="Group 316">
              <g id="Group_315" data-name="Group 315">
                <g id="Group_309" data-name="Group 309">
                  <g id="Group_294" data-name="Group 294">
                    <path id="Path_225" data-name="Path 225" d="M136.278,285.111c.052-6.156-.005-12.639-.005-12.639s-7.916-1.408-9.44-11.775c-1.452-9.886,1.012-31.15,1.012-31.15h0c11.468-4.523,24.38-2.774,32.414,6.457h0l-1.249,50c-.145,5.8-5.251,10.3-11.464,10.1h0C141.27,295.894,136.228,290.977,136.278,285.111Z" fill="#ffbe9d"/>
                  </g>
                  <g id="Group_298" data-name="Group 298">
                    <g id="Group_295" data-name="Group 295">
                      <path id="Path_226" data-name="Path 226" d="M130,245.874a1.327,1.327,0,0,0,1.264,1.354,1.268,1.268,0,0,0,1.381-1.18,1.328,1.328,0,0,0-1.262-1.355A1.269,1.269,0,0,0,130,245.874Z" fill="#263238"/>
                    </g>
                    <g id="Group_297" data-name="Group 297">
                      <g id="Group_296" data-name="Group 296">
                        <path id="Path_227" data-name="Path 227" d="M127.865,244.848c.163.175,1.177-.557,2.605-.537,2.687.389,2.638.8,2.623.574.077-.077-.087-.391-.54-.729a3.642,3.642,0,0,0-2.1-.673,3.489,3.489,0,0,0-2.075.644C127.937,244.459,127.785,244.77,127.865,244.848Z" fill="#263238"/>
                      </g>
                    </g>
                  </g>
                  <g id="Group_302" data-name="Group 302">
                    <g id="Group_299" data-name="Group 299">
                      <path id="Path_228" data-name="Path 228" d="M144.615,246.3a1.329,1.329,0,0,0,1.265,1.354,1.27,1.27,0,0,0,1.381-1.181A1.328,1.328,0,0,0,146,245.114,1.271,1.271,0,0,0,144.615,246.3Z" fill="#263238"/>
                    </g>
                    <g id="Group_301" data-name="Group 301">
                      <g id="Group_300" data-name="Group 300">
                        <path id="Path_229" data-name="Path 229" d="M142.759,245.341c.163.175,1.178-.557,2.6-.537,1.427,0,2.466.747,2.623.574.077-.077-.085-.391-.539-.728a3.647,3.647,0,0,0-2.1-.674,3.5,3.5,0,0,0-2.076.644C142.833,244.952,142.68,245.263,142.759,245.341Z" fill="#263238"/>
                      </g>
                    </g>
                  </g>
                  <g id="Group_304" data-name="Group 304">
                    <g id="Group_303" data-name="Group 303">
                      <path id="Path_230" data-name="Path 230" d="M137.454,255.585a9.483,9.483,0,0,0-2.314-.445c-.364-.042-.709-.118-.767-.368a1.853,1.853,0,0,1,.256-1.078q.529-1.317,1.11-2.764c1.543-3.936,2.665-7.174,2.506-7.235s-1.539,3.08-3.082,7.016c-.372.971-.727,1.9-1.066,2.782a2.112,2.112,0,0,0-.205,1.429.917.917,0,0,0,.593.54,2.526,2.526,0,0,0,.618.093A9.319,9.319,0,0,0,137.454,255.585Z" fill="#263238"/>
                    </g>
                  </g>
                  <g id="Group_305" data-name="Group 305">
                    <path id="Path_231" data-name="Path 231" d="M136.273,272.472a26.317,26.317,0,0,0,13.9-3.536s-3.444,7.069-13.789,5.981Z" fill="#eb996e"/>
                  </g>
                  <g id="Group_306" data-name="Group 306">
                    <path id="Path_232" data-name="Path 232" d="M138.018,259.034a2.573,2.573,0,0,1,2.318-.929,2.348,2.348,0,0,1,1.612.889,1.487,1.487,0,0,1,.094,1.7,1.728,1.728,0,0,1-1.878.452,5.407,5.407,0,0,1-1.812-1.111,1.567,1.567,0,0,1-.4-.426.48.48,0,0,1,.008-.532" fill="#eb996e"/>
                  </g>
                  <g id="Group_308" data-name="Group 308">
                    <g id="Group_307" data-name="Group 307">
                      <path id="Path_233" data-name="Path 233" d="M141.646,256.622c-.233-.017-.253,1.534-1.593,2.618s-2.987.9-3,1.112c-.023.1.365.305,1.062.332a3.856,3.856,0,0,0,2.5-.84,3.358,3.358,0,0,0,1.235-2.2C141.92,257,141.752,256.614,141.646,256.622Z" fill="#263238"/>
                    </g>
                  </g>
                </g>
                <g id="Group_310" data-name="Group 310">
                  <path id="Path_234" data-name="Path 234" d="M155.765,228.619c-3.786,5.4-13.81,10.952-20.988,12.241.838-1.1,5.247-3.822,6.085-4.925-3.254,2.43-7.91,5.68-12.227,5.9a2.621,2.621,0,0,1-1.483-.231,2,2,0,0,1-.755-1.626,43.128,43.128,0,0,1,.3-9.377,10.377,10.377,0,0,1,3.734-6.691c2.765-2.136,6.723-2.663,10.453-2.753a23.649,23.649,0,0,1,9.21,1.239c2.859,1.128,5.3,3.359,5.723,6.041" fill="#263238"/>
                </g>
                <g id="Group_311" data-name="Group 311">
                  <path id="Path_235" data-name="Path 235" d="M166.62,252.81a58.582,58.582,0,0,0,1.034-6.917c.3-5.341-1.237-25.049-19.648-23.463l-.743,5.607s-2.846,19.194,9.064,19.336a21.412,21.412,0,0,0,6.051,11.282s3.123-.1,4.242-5.845" fill="#263238"/>
                </g>
                <g id="Group_312" data-name="Group 312">
                  <path id="Path_236" data-name="Path 236" d="M156.327,247.373a6.175,6.175,0,0,1,3.328.252,4.308,4.308,0,0,1,2.413,2.24,4.505,4.505,0,0,1-.01,3.308,7.623,7.623,0,0,1-1.917,2.761,5.17,5.17,0,0,1-2.024,1.31,2.467,2.467,0,0,1-2.3-.384" fill="#ffbe9d"/>
                </g>
                <g id="Group_314" data-name="Group 314">
                  <g id="Group_313" data-name="Group 313">
                    <path id="Path_237" data-name="Path 237" d="M156.861,254.088c-.127.04.346.715,1.361.454a2.18,2.18,0,0,0,1.263-1.077,4.909,4.909,0,0,0,.572-1.83,2.887,2.887,0,0,0-.446-1.953,1.925,1.925,0,0,0-1.443-.876c-1.041-.035-1.372.682-1.254.705.082.085.49-.282,1.17-.11a1.865,1.865,0,0,1,1.128,2.15c-.136,1.137-.586,2.174-1.2,2.427C157.383,254.292,156.931,254,156.861,254.088Z" fill="#eb996e"/>
                  </g>
                </g>
              </g>
            </g>
          </g>
          <path id="Path_238" data-name="Path 238" d="M158.336,226.6a6.277,6.277,0,0,0,8.5-2.233,4.019,4.019,0,0,0,.581-3,4.131,4.131,0,0,0-3.092-2.681,6.317,6.317,0,0,0-5.805,1.394,5.544,5.544,0,0,0-1.5,5.7,4.943,4.943,0,0,0,4.775,3.295" fill="#263238"/>
          <path id="Path_239" data-name="Path 239" d="M160.015,256.445a14.578,14.578,0,0,0-2.862,2.468,4.928,4.928,0,0,0-1.235,3.482,9.063,9.063,0,0,1,.232,2.1,7.011,7.011,0,0,1-1.451,2.5,5.929,5.929,0,0,0,.935,6.949,9.62,9.62,0,0,0,6.8,2.765,6.858,6.858,0,0,0,4.181-.992c1.722-1.206,2.384-3.465,2.428-5.566" fill="#263238"/>
          <g id="Group_318" data-name="Group 318">
            <path id="Path_240" data-name="Path 240" d="M161.265,230.725a6.8,6.8,0,0,1-1.085,1.888,21.865,21.865,0,0,1-7.917,6.8,6.822,6.822,0,0,1-2.029.789,47.29,47.29,0,0,0,6.061-4.107A47.3,47.3,0,0,0,161.265,230.725Z" fill="#455a64"/>
          </g>
          <g id="Group_319" data-name="Group 319">
            <path id="Path_241" data-name="Path 241" d="M163.175,230.624a8.2,8.2,0,0,1-.339,2.523,20.379,20.379,0,0,1-6.271,10.422,8.184,8.184,0,0,1-2.071,1.482,25.7,25.7,0,0,0,8.681-14.427Z" fill="#455a64"/>
          </g>
          <g id="Group_320" data-name="Group 320">
            <path id="Path_242" data-name="Path 242" d="M123.2,238.958c.153-.011.35,1.722.948,3.767s1.341,3.621,1.2,3.693a11.844,11.844,0,0,1-2.153-7.46Z" fill="#455a64"/>
          </g>
          <g id="Group_321" data-name="Group 321">
            <path id="Path_243" data-name="Path 243" d="M167.3,274.337a2.892,2.892,0,0,0,1.523.489,3.114,3.114,0,0,0,1.762-.555,3.555,3.555,0,0,0,1.334-2.021,6.516,6.516,0,0,0,.019-3.014c-.216-1.085-.637-2.207-1.008-3.431a9.052,9.052,0,0,1-.444-4.03c.23-1.466,1.18-2.654,1.643-3.97a5.2,5.2,0,0,0-3.037-6.451c-.572-.244-1.165-.451-1.715-.75a3.5,3.5,0,0,1-1.369-1.227,5.759,5.759,0,0,1-.619-3.146,10.745,10.745,0,0,0-.1-2.543,4.155,4.155,0,0,0-.75-1.722,2.477,2.477,0,0,0-1.349-.834.913.913,0,0,1,.436.034,2.086,2.086,0,0,1,1.067.668,4.228,4.228,0,0,1,.88,1.789,10.49,10.49,0,0,1,.187,2.608,5.475,5.475,0,0,0,.615,2.914c.559.918,1.724,1.3,2.906,1.767a5.67,5.67,0,0,1,3.343,7.065c-.52,1.434-1.433,2.577-1.632,3.884a8.664,8.664,0,0,0,.4,3.808c.35,1.2.764,2.352.971,3.485a6.793,6.793,0,0,1-.089,3.2,3.816,3.816,0,0,1-1.527,2.161,3.251,3.251,0,0,1-1.93.516,2.354,2.354,0,0,1-1.2-.392A1.092,1.092,0,0,1,167.3,274.337Z" fill="#455a64"/>
          </g>
          <g id="Group_322" data-name="Group 322">
            <path id="Path_244" data-name="Path 244" d="M160.086,273.634c.046-.029.131.321.616.541a1.641,1.641,0,0,0,1.94-.525,3.061,3.061,0,0,0-.162-3.13c-.57-1.131-1.7-2.238-1.992-3.889a2.814,2.814,0,0,1,.556-2.306c.489-.6,1.064-1.006,1.439-1.5a4.359,4.359,0,0,0,.7-3.193,12.391,12.391,0,0,0-.573-2.269,2.978,2.978,0,0,1-.231-.846,2.775,2.775,0,0,1,.42.772,9.737,9.737,0,0,1,.748,2.288,4.628,4.628,0,0,1-.678,3.537c-.425.574-1.007,1-1.419,1.525a2.316,2.316,0,0,0-.445,1.908c.236,1.437,1.3,2.528,1.9,3.752a3.4,3.4,0,0,1,.034,3.567,1.792,1.792,0,0,1-1.269.694,1.753,1.753,0,0,1-1.062-.2C160.074,274.029,160.067,273.619,160.086,273.634Z" fill="#455a64"/>
          </g>
          <g id="Group_323" data-name="Group 323">
            <path id="Path_245" data-name="Path 245" d="M120.887,271.021a4.452,4.452,0,0,1-.814-.812,9.873,9.873,0,0,1-1.745-2.629,5.247,5.247,0,0,1-.419-2.183,3.8,3.8,0,0,1,.881-2.422c.62-.72,1.519-1.091,2.061-1.764a2.946,2.946,0,0,0,.414-2.573,10.973,10.973,0,0,0-1.1-2.643,9.073,9.073,0,0,1-.972-2.624,3.431,3.431,0,0,1,.515-2.525,8.807,8.807,0,0,1,1.523-1.588,4.566,4.566,0,0,0,1.708-2.436,3.006,3.006,0,0,0-.043-1.1c.012-.007.079.077.151.264a1.784,1.784,0,0,1,.092.869,4.548,4.548,0,0,1-1.658,2.676,8.867,8.867,0,0,0-1.411,1.553,3,3,0,0,0-.4,2.211,8.888,8.888,0,0,0,.953,2.469,11.128,11.128,0,0,1,1.151,2.761,3.436,3.436,0,0,1-.526,3.01c-.68.8-1.574,1.145-2.1,1.759a3.4,3.4,0,0,0-.81,2.122,5,5,0,0,0,.331,2.03,11.179,11.179,0,0,0,1.559,2.637A5.343,5.343,0,0,1,120.887,271.021Z" fill="#455a64"/>
          </g>
          <g id="Group_324" data-name="Group 324">
            <path id="Path_246" data-name="Path 246" d="M162.59,227.9a16.453,16.453,0,0,0-2.438-2.648,16.538,16.538,0,0,0-3.212-1.626,5.979,5.979,0,0,1,5.65,4.274Z" fill="#e8505b"/>
          </g>
          <g id="Group_325" data-name="Group 325">
            <path id="Path_247" data-name="Path 247" d="M164.034,218.328c.053-.033.388.358.658,1.134a5.418,5.418,0,0,1-1.617,5.851c-.63.527-1.118.691-1.146.636-.042-.07.367-.343.893-.9a5.949,5.949,0,0,0,1.515-5.485A7.563,7.563,0,0,1,164.034,218.328Z" fill="#455a64"/>
          </g>
        </g>
        <path id="Path_248" data-name="Path 248" d="M113.254,341.343s24.845,23.592,39.614,19.321,19.14-15.352,19.14-15.352l.358-3.969-1.48-.968-56.86-4.6Z" opacity="0.3"/>
        <g id="Group_348" data-name="Group 348">
          <g id="Group_329" data-name="Group 329">
            <path id="Path_249" data-name="Path 249" d="M98.555,319.243l4.792-12.286,17.173,10.789-15.3,23.6S98.993,333.258,98.555,319.243Z" fill="#eb996e"/>
            <g id="Group_328" data-name="Group 328">
              <g id="Group_327" data-name="Group 327">
                <path id="Path_250" data-name="Path 250" d="M117.935,285.3c7.989-4.175,18.338-5.377,18.338-5.377h0c3,6.012,12.469,6.775,18.2,2.672l4.833-3.267a17.535,17.535,0,0,1,2.025.083,25.812,25.812,0,0,1,22.862,20.555,51.546,51.546,0,0,1,1.209,12.992c-.629,10.924-11.943,11.912-11.943,11.912s-.582,10.8-1.346,19.52h0a16.284,16.284,0,0,1-9.9,14.112,40.185,40.185,0,0,1-12.613,3.889,42.359,42.359,0,0,1-37.583-13.014c1.716-10.4,3.356-23.878,3.239-24.481a.3.3,0,0,1,.019-.2l-11.213-9.954L97.712,309.4s13.947-20.7,20.223-24.107" fill="#e8505b"/>
              </g>
            </g>
          </g>
          <g id="Group_330" data-name="Group 330">
            <path id="Path_251" data-name="Path 251" d="M131.829,292.028a5.959,5.959,0,0,0-2.772-.766,4.561,4.561,0,0,0-2.86.991,12.238,12.238,0,0,0-1.273,1.368,3.315,3.315,0,0,1-1.814,1.2,2.955,2.955,0,0,1-2.113-.566c-.576-.368-1.068-.772-1.574-1.062a3.432,3.432,0,0,0-2.934-.256,3.875,3.875,0,0,0-1.7,1.176c-.315.389-.43.654-.473.635a1.53,1.53,0,0,1,.309-.755,3.87,3.87,0,0,1,5.038-1.218c.558.306,1.064.709,1.609,1.047a2.48,2.48,0,0,0,1.749.486,2.874,2.874,0,0,0,1.529-1.033,11.467,11.467,0,0,1,1.352-1.4,4.793,4.793,0,0,1,3.165-.986,4.559,4.559,0,0,1,2.142.612C131.656,291.783,131.845,292.01,131.829,292.028Z" fill="#fafafa"/>
          </g>
          <g id="Group_331" data-name="Group 331">
            <path id="Path_252" data-name="Path 252" d="M143.223,306.957a5.957,5.957,0,0,0-2.382-1.612,4.556,4.556,0,0,0-3.026.026,12.082,12.082,0,0,0-1.643.889,3.314,3.314,0,0,1-2.1.561,2.951,2.951,0,0,1-1.82-1.211c-.429-.533-.766-1.073-1.153-1.51a3.433,3.433,0,0,0-2.7-1.179,3.875,3.875,0,0,0-1.991.569c-.423.269-.616.483-.651.452-.02-.014.122-.278.534-.617a3.868,3.868,0,0,1,5.163.455c.431.468.782,1.012,1.19,1.507a2.488,2.488,0,0,0,1.5,1.019,2.869,2.869,0,0,0,1.778-.491,11.493,11.493,0,0,1,1.728-.895,4.8,4.8,0,0,1,3.314.077,4.574,4.574,0,0,1,1.835,1.264A1.7,1.7,0,0,1,143.223,306.957Z" fill="#fafafa"/>
          </g>
          <g id="Group_332" data-name="Group 332">
            <path id="Path_253" data-name="Path 253" d="M168.531,285.1a5.942,5.942,0,0,0-2.872-.163,4.562,4.562,0,0,0-2.584,1.575,11.954,11.954,0,0,0-.955,1.606,3.306,3.306,0,0,1-1.519,1.56,2.948,2.948,0,0,1-2.184-.1c-.641-.238-1.208-.529-1.764-.705a3.43,3.43,0,0,0-2.921.371,3.878,3.878,0,0,0-1.417,1.51c-.225.447-.281.731-.327.721a1.523,1.523,0,0,1,.142-.8,3.868,3.868,0,0,1,4.666-2.257c.609.18,1.19.468,1.794.683a2.482,2.482,0,0,0,1.813.1,2.877,2.877,0,0,0,1.275-1.333,11.4,11.4,0,0,1,1.024-1.655,4.794,4.794,0,0,1,2.885-1.633,4.566,4.566,0,0,1,2.223.144A1.688,1.688,0,0,1,168.531,285.1Z" fill="#fafafa"/>
          </g>
          <g id="Group_333" data-name="Group 333">
            <path id="Path_254" data-name="Path 254" d="M156.853,301.5a5.125,5.125,0,0,0-1.8-1.287,3.489,3.489,0,0,0-2.3-.071,9.367,9.367,0,0,0-1.288.628,2.608,2.608,0,0,1-1.679.365,2.328,2.328,0,0,1-1.4-1.02c-.314-.43-.554-.858-.832-1.2a2.61,2.61,0,0,0-2-1,3.637,3.637,0,0,0-2.072.653c-.02-.017.092-.222.421-.477a2.882,2.882,0,0,1,1.654-.544,2.936,2.936,0,0,1,2.365,1.06c.32.379.573.812.869,1.2a1.864,1.864,0,0,0,1.087.814c.919.161,1.763-.666,2.723-.94a3.725,3.725,0,0,1,2.584.188C156.586,300.516,156.9,301.515,156.853,301.5Z" fill="#fafafa"/>
          </g>
          <g id="Group_334" data-name="Group 334">
            <path id="Path_255" data-name="Path 255" d="M131.1,315.325a5.072,5.072,0,0,0-1.795-1.287,3.5,3.5,0,0,0-2.3-.072,9.369,9.369,0,0,0-1.288.628,2.6,2.6,0,0,1-1.679.365,2.331,2.331,0,0,1-1.4-1.02c-.313-.43-.553-.857-.831-1.2a2.615,2.615,0,0,0-2-1,3.632,3.632,0,0,0-2.071.654c-.021-.017.092-.222.42-.477a2.88,2.88,0,0,1,1.654-.545,2.937,2.937,0,0,1,2.365,1.06c.321.38.574.812.869,1.2a1.859,1.859,0,0,0,1.088.814c.919.162,1.763-.665,2.723-.94a3.731,3.731,0,0,1,2.584.189C130.83,314.337,131.15,315.336,131.1,315.325Z" fill="#fafafa"/>
          </g>
          <g id="Group_335" data-name="Group 335">
            <path id="Path_256" data-name="Path 256" d="M155.174,315.636a5.116,5.116,0,0,0-2.116-.636,3.484,3.484,0,0,0-2.2.677,9.266,9.266,0,0,0-1.015,1.011,2.609,2.609,0,0,1-1.471.889,2.327,2.327,0,0,1-1.651-.514c-.437-.3-.8-.632-1.177-.87a2.611,2.611,0,0,0-2.211-.3,3.644,3.644,0,0,0-1.749,1.288c-.025-.009.015-.239.244-.587a2.881,2.881,0,0,1,1.388-1.05,2.936,2.936,0,0,1,2.581.237c.426.256.806.583,1.212.857a1.863,1.863,0,0,0,1.292.419c.922-.145,1.453-1.2,2.273-1.771a3.725,3.725,0,0,1,2.5-.658A2.7,2.7,0,0,1,155.174,315.636Z" fill="#fafafa"/>
          </g>
          <g id="Group_336" data-name="Group 336">
            <path id="Path_257" data-name="Path 257" d="M147.221,326.619a5.089,5.089,0,0,0-2.116-.637,3.5,3.5,0,0,0-2.2.677,9.267,9.267,0,0,0-1.015,1.011,2.609,2.609,0,0,1-1.471.889,2.331,2.331,0,0,1-1.651-.513c-.437-.306-.8-.633-1.177-.87a2.612,2.612,0,0,0-2.211-.3,3.635,3.635,0,0,0-1.749,1.289c-.025-.01.015-.24.244-.587a2.876,2.876,0,0,1,1.388-1.051,2.937,2.937,0,0,1,2.581.238c.426.255.806.582,1.212.856a1.858,1.858,0,0,0,1.292.419c.922-.145,1.453-1.2,2.273-1.77a3.72,3.72,0,0,1,2.505-.658A2.7,2.7,0,0,1,147.221,326.619Z" fill="#fafafa"/>
          </g>
          <g id="Group_337" data-name="Group 337">
            <path id="Path_258" data-name="Path 258" d="M130.426,353.88a5.082,5.082,0,0,0-1.814-1.262,3.491,3.491,0,0,0-2.3-.039,9.487,9.487,0,0,0-1.279.646,2.6,2.6,0,0,1-1.674.389,2.325,2.325,0,0,1-1.411-1c-.32-.425-.565-.849-.848-1.192a2.613,2.613,0,0,0-2.011-.967,3.645,3.645,0,0,0-2.062.682c-.021-.016.089-.223.414-.482a2.876,2.876,0,0,1,1.646-.568,2.936,2.936,0,0,1,2.38,1.026c.326.375.585.8.886,1.19a1.856,1.856,0,0,0,1.1.8c.922.148,1.754-.691,2.71-.978a3.725,3.725,0,0,1,2.586.151C130.145,352.9,130.479,353.89,130.426,353.88Z" fill="#fafafa"/>
          </g>
          <g id="Group_338" data-name="Group 338">
            <path id="Path_259" data-name="Path 259" d="M150.078,359.678a5.1,5.1,0,0,0-2.107-.666,3.493,3.493,0,0,0-2.209.646,9.464,9.464,0,0,0-1.029,1,2.606,2.606,0,0,1-1.483.869,2.332,2.332,0,0,1-1.644-.536c-.432-.312-.793-.644-1.164-.887a2.617,2.617,0,0,0-2.207-.327,3.636,3.636,0,0,0-1.767,1.265c-.025-.01.019-.24.252-.584a2.881,2.881,0,0,1,1.4-1.031,2.934,2.934,0,0,1,2.577.273c.423.261.8.594,1.2.873a1.86,1.86,0,0,0,1.286.437c.924-.132,1.47-1.18,2.3-1.739a3.721,3.721,0,0,1,2.515-.623A2.7,2.7,0,0,1,150.078,359.678Z" fill="#fafafa"/>
          </g>
          <g id="Group_343" data-name="Group 343">
            <g id="Group_341" data-name="Group 341">
              <g id="Group_340" data-name="Group 340">
                <path id="Path_260" data-name="Path 260" d="M85.318,276.979c.607.715,22.593,30.114,22.593,30.114l-3.1,1.754L82.254,279.822Z" fill="#263238"/>
                <path id="Path_261" data-name="Path 261" d="M171.134,297.954s-20.622,35.563-22.016,36.217c-2.745,1.288-34.388-26.056-37.4-28.672-.416-.556-1.274-1.728-2.96-4.06,0,0-2.5-11.424-5.16-10.547s1.459,5.8-.276,10.146-9.681-6.013-10-6.942l-2.049-2.677s-2.149,6.093-2,8.636c.467,8.151,8.178,17.844,8.178,17.844s31.334,39.264,55.055,40.6c6.832.383,19.882-19.286,28-33.822,4.9-8.778,2.627-17.7-5.5-23.619Z" fill="#ffbe9d"/>
                <g id="Group_339" data-name="Group 339">
                  <path id="Path_262" data-name="Path 262" d="M93.158,301.5a18.775,18.775,0,0,1-2.981-6.024,33.575,33.575,0,0,1,1.5,3.008C92.494,300.148,93.235,301.457,93.158,301.5Z" fill="#eb996e"/>
                </g>
              </g>
            </g>
            <path id="Path_263" data-name="Path 263" d="M170.164,288.061c-.815.489-19.991,36.089-19.991,36.089l24.684,19.335a285.889,285.889,0,0,0,9.808-28.678c.919-3.49.445-12.817-.852-16.415-1.844-5.113-4.625-3.84-8.789-6.835Z" fill="#e8505b"/>
            <g id="Group_342" data-name="Group 342" opacity="0.7">
              <path id="Path_264" data-name="Path 264" d="M178.273,288.061c-.015.022-.242-.136-.7-.368a4.145,4.145,0,0,0-2.17-.456,5.919,5.919,0,0,0-3.22,1.345,15.991,15.991,0,0,0-3.213,3.461c-1.043,1.421-1.9,3.155-2.957,4.963-1.035,1.816-2.138,3.753-3.3,5.791l-7.586,13.252-4.732,8.226-.064-.324,16.7,13.2,4.846,3.89,1.284,1.06a2.721,2.721,0,0,1,.426.391,2.846,2.846,0,0,1-.481-.32c-.34-.254-.783-.583-1.337-.994l-4.937-3.773-16.814-13.054-.172-.134.109-.191,4.717-8.231,7.62-13.228,3.338-5.766a57.1,57.1,0,0,1,3.038-4.972,16,16,0,0,1,3.338-3.479,6.055,6.055,0,0,1,3.386-1.314,4.084,4.084,0,0,1,2.227.566,3.616,3.616,0,0,1,.5.329C178.226,288.01,178.278,288.054,178.273,288.061Z"/>
            </g>
          </g>
          <g id="Group_344" data-name="Group 344">
            <path id="Path_265" data-name="Path 265" d="M170.9,321.442a5.111,5.111,0,0,0-1.8-1.287,3.5,3.5,0,0,0-2.3-.072,9.6,9.6,0,0,0-1.288.628,2.608,2.608,0,0,1-1.679.366,2.331,2.331,0,0,1-1.4-1.021c-.314-.43-.554-.857-.832-1.2a2.617,2.617,0,0,0-2-1,3.642,3.642,0,0,0-2.072.654c-.02-.017.092-.222.421-.477a2.882,2.882,0,0,1,1.654-.545,2.936,2.936,0,0,1,2.364,1.06c.321.38.574.812.87,1.2a1.86,1.86,0,0,0,1.087.814c.919.162,1.763-.665,2.723-.939a3.725,3.725,0,0,1,2.584.188C170.635,320.454,170.955,321.453,170.9,321.442Z" fill="#fafafa"/>
          </g>
          <g id="Group_345" data-name="Group 345">
            <path id="Path_266" data-name="Path 266" d="M182.185,316.837a5.1,5.1,0,0,0-1.382-1.723,3.49,3.49,0,0,0-2.2-.69,9.43,9.43,0,0,0-1.409.258,2.608,2.608,0,0,1-1.715-.1,2.327,2.327,0,0,1-1.07-1.359c-.186-.5-.3-.975-.476-1.383a2.617,2.617,0,0,0-1.654-1.5,3.637,3.637,0,0,0-2.171.071c-.015-.022.149-.189.534-.346a2.881,2.881,0,0,1,1.739-.078,2.936,2.936,0,0,1,1.992,1.658c.206.452.333.937.512,1.393a1.864,1.864,0,0,0,.828,1.077c.841.4,1.877-.165,2.875-.17a3.726,3.726,0,0,1,2.438.878A2.7,2.7,0,0,1,182.185,316.837Z" fill="#fafafa"/>
          </g>
          <g id="Group_346" data-name="Group 346">
            <path id="Path_267" data-name="Path 267" d="M182.764,302.122a5.085,5.085,0,0,0-1.382-1.724,3.492,3.492,0,0,0-2.2-.689,9.249,9.249,0,0,0-1.409.257,2.6,2.6,0,0,1-1.716-.1,2.329,2.329,0,0,1-1.069-1.359c-.187-.5-.3-.975-.476-1.384a2.612,2.612,0,0,0-1.654-1.5,3.629,3.629,0,0,0-2.171.07c-.015-.022.148-.189.533-.346a2.884,2.884,0,0,1,1.74-.078,2.935,2.935,0,0,1,1.991,1.659c.206.451.334.936.513,1.392a1.859,1.859,0,0,0,.827,1.077c.842.4,1.878-.165,2.876-.17a3.726,3.726,0,0,1,2.437.878A2.691,2.691,0,0,1,182.764,302.122Z" fill="#fafafa"/>
          </g>
          <g id="Group_347" data-name="Group 347">
            <path id="Path_268" data-name="Path 268" d="M177.3,335.952a5.1,5.1,0,0,0-1.382-1.724,3.493,3.493,0,0,0-2.2-.689,9.423,9.423,0,0,0-1.409.257,2.6,2.6,0,0,1-1.715-.1,2.33,2.33,0,0,1-1.07-1.359c-.186-.5-.3-.975-.476-1.384a2.612,2.612,0,0,0-1.654-1.5,3.637,3.637,0,0,0-2.17.07c-.016-.022.148-.188.533-.345a2.872,2.872,0,0,1,1.739-.079,2.938,2.938,0,0,1,1.992,1.659c.206.452.333.936.512,1.392a1.863,1.863,0,0,0,.828,1.078c.841.4,1.877-.166,2.875-.171a3.731,3.731,0,0,1,2.438.879A2.7,2.7,0,0,1,177.3,335.952Z" fill="#fafafa"/>
          </g>
        </g>
      </g>
    </g>
  </g>
</svg>
