<svg width="16" height="16" viewBox="0 0 16 16" fill="none" xmlns="http://www.w3.org/2000/svg">
<path d="M8.00002 0C6.41777 0 4.87104 0.469192 3.55545 1.34824C2.23985 2.22729 1.21447 3.47672 0.608968 4.93853C0.00346625 6.40034 -0.154961 8.00887 0.153722 9.56072C0.462404 11.1126 1.22433 12.538 2.34315 13.6569C3.46197 14.7757 4.88743 15.5376 6.43929 15.8463C7.99114 16.155 9.59967 15.9965 11.0615 15.391C12.5233 14.7855 13.7727 13.7602 14.6518 12.4446C15.5308 11.129 16 9.58225 16 8C15.9976 5.879 15.154 3.84555 13.6542 2.34578C12.1545 0.846003 10.121 0.00238211 8.00002 0ZM14.335 8C14.335 9.25294 13.9635 10.4778 13.2674 11.5195C12.5713 12.5613 11.5819 13.3733 10.4243 13.8528C9.26675 14.3323 7.99299 14.4577 6.76411 14.2133C5.53524 13.9688 4.40645 13.3655 3.52049 12.4795C2.63452 11.5936 2.03117 10.4648 1.78674 9.2359C1.5423 8.00703 1.66774 6.73327 2.14722 5.5757C2.62671 4.41813 3.43868 3.42874 4.48047 2.73264C5.52225 2.03654 6.74707 1.665 8.00002 1.665C9.67969 1.66712 11.2899 2.33537 12.4776 3.52317C13.6652 4.71097 14.3332 6.32133 14.335 8.001V8Z" fill="#4C7CD4"/>
<path d="M7.99905 3.33936C7.78481 3.33896 7.57528 3.40212 7.39694 3.52083C7.2186 3.63955 7.07948 3.80849 6.99718 4.00629C6.91487 4.20409 6.89307 4.42185 6.93455 4.63204C6.97604 4.84222 7.07893 5.03538 7.23021 5.18708C7.38149 5.33878 7.57435 5.44221 7.78442 5.48427C7.99449 5.52633 8.21232 5.50515 8.41034 5.42339C8.60837 5.34163 8.77769 5.20298 8.8969 5.02497C9.01611 4.84696 9.07985 4.63759 9.08005 4.42335C9.08005 4.13638 8.96625 3.86112 8.76361 3.65791C8.56097 3.45471 8.28602 3.34015 7.99905 3.33936Z" fill="#4C7CD4"/>
<path d="M7.99828 6.64996C7.77513 6.64996 7.56111 6.73854 7.40323 6.89623C7.24535 7.05391 7.15652 7.26782 7.15625 7.49096V11.835C7.15625 12.058 7.24486 12.2719 7.40258 12.4296C7.5603 12.5874 7.77422 12.676 7.99727 12.676C8.22032 12.676 8.43424 12.5874 8.59196 12.4296C8.74968 12.2719 8.83829 12.058 8.83829 11.835V7.48596C8.83697 7.26396 8.74792 7.05148 8.59056 6.89487C8.43319 6.73826 8.22029 6.65022 7.99828 6.64996Z" fill="#4C7CD4"/>
</svg>
